<svg xmlns="http://www.w3.org/2000/svg" version="1.1" xmlns:xlink="http://www.w3.org/1999/xlink" width="1500" height="1500" viewBox="0 0 1500 1500"><rect width="1500" height="1500" x="0" y="0" id="background" stroke="transparent" fill="#000000"></rect><svg xml:space="preserve" width="1000" height="1000" data-version="2" data-id="lg_FdWj4h8wOIueli3YUF" viewBox="0 0 566 309" x="250" y="250"><rect width="100%" height="100%" fill="transparent"></rect><circle r="50" stroke="#f00b51" paint-order="stroke" transform="translate(157.15 154.5)scale(3.0025)"></circle><circle r="50" stroke="#f00b51" paint-order="stroke" transform="translate(157.15 154.5)scale(2.4089)"></circle><path fill="#ffdc00" d="M129.84 156.867a2.957 2.957 0 0 1-2.952-2.953c0-16.28 13.244-29.524 29.524-29.524 1.63 0 2.952 1.329 2.952 2.953s-1.323 2.952-2.952 2.952c-13.026 0-23.62 10.593-23.62 23.62a2.952 2.952 0 0 1-2.952 2.952m32.529 25.903a2.941 2.941 0 0 1-2.876-2.296 2.957 2.957 0 0 1 2.214-3.543 23.535 23.535 0 0 0 15.831-12.46c.732-1.446 2.498-2.06 3.956-1.322a2.94 2.94 0 0 1 1.323 3.956A29.391 29.391 0 0 1 163.03 182.7c-.219.047-.443.07-.661.07"></path><path fill="#ffdc00" d="M156.412 171.629c-9.767 0-17.715-7.948-17.715-17.715s7.948-17.714 17.715-17.714 17.714 7.948 17.714 17.714-7.948 17.715-17.714 17.715m0-29.524c-6.513 0-11.81 5.29-11.81 11.81s5.297 11.809 11.81 11.809c6.518 0 11.81-5.291 11.81-11.81s-5.292-11.81-11.81-11.81"></path><path fill="#ffdc00" d="M156.412 208.699c-14.55 0-29.247-1.21-50.723-4.163-11.1-1.523-20.135-12.164-20.135-23.696v-53.87c0-11.537 9.034-22.172 20.141-23.707 42.981-5.917 58.5-5.917 101.439 0 11.107 1.523 20.135 12.17 20.135 23.708v53.869c0 11.544-9.04 22.173-20.153 23.708-21.47 2.946-36.16 4.15-50.704 4.15m.011-103.659c-14.254 0-28.72 1.187-49.925 4.092-8.154 1.122-15.04 9.3-15.04 17.844v53.87c0 8.538 6.886 16.722 15.034 17.838 42.38 5.799 57.442 5.81 99.821 0 8.16-1.104 15.051-9.288 15.051-17.838v-53.87c0-8.556-6.885-16.722-15.04-17.838-21.18-2.917-35.64-4.098-49.9-4.098"></path><path fill="#ffdc00" d="M156.412 198.2c-24.423 0-44.286-19.858-44.286-44.286s19.863-44.286 44.286-44.286 44.286 19.858 44.286 44.286-19.864 44.286-44.286 44.286m0-82.667c-21.163 0-38.382 17.218-38.382 38.381s17.219 38.381 38.382 38.381 38.38-17.218 38.38-38.38-17.218-38.382-38.38-38.382M41.195 199.804q0 .14.14 2.1l-9.66.84v92.26h38.64l2.8-22.4 2.66.7-2.1 24.5h-32.48l-28.14.14.14-1.96 7.28-.98q1.4-.14 1.68-1.82v-88.62q-.28-1.68-1.68-1.82l-7.28-.7-.14-2.1Z"></path><rect width="62.72" height="98.14" x="-31.36" y="-49.07" fill="none" rx="0" ry="0" transform="translate(44.91 249.37)"></rect><path fill="#ffdc00" d="M93.835 265.604q0 30.24 23.52 30.24 6.16 0 13.16-1.33t8.96-2.45l.98 1.4q-3.22 2.1-10.57 3.5t-13.44 1.4q-6.09 0-10.92-1.26t-9.87-4.48q-5.04-3.22-7.98-10.08-2.94-6.86-2.94-16.8 0-18.48 9.52-28.28 9.94-10.22 23.1-10.22 13.16 0 20.09 7.28t6.93 20.44q0 2.8-.42 6.02h-49.98q-.14 1.54-.14 4.62m42.28-11.62q0-10.5-4.62-17.15-4.62-6.65-12.6-6.65-10.36 0-17.5 9.1-5.74 7.14-7.14 19.04h41.72q.14-1.54.14-4.34"></path><rect width="59.64" height="71.12" x="-29.82" y="-35.56" fill="none" rx="0" ry="0" transform="translate(115.06 263.3)"></rect><path fill="#ffdc00" d="m154.175 297.944.14-1.96 7.28-.98q1.26-.14 1.26-1.96v-60.62q-.28-1.12-.84-1.12l-8.54-.28.14-1.96q8.82-1.26 11.9-1.26 5.6 0 6.3 4.9h.14v2.94q11.48-7.84 21.98-8.26 10.22 0 15.54 4.06 2.38 1.82 4.27 5.67 1.89 3.85 1.89 9.17v48.72l10.5.7q0 .14-.14 2.1l-28 .14q0-1.26.14-1.96l7.28-.98q1.12-.14 1.12-1.96v-43.26q0-5.6-1.47-9.52t-3.29-5.74q-1.82-1.82-4.48-2.8-3.08-1.12-6.44-1.12-8.4.14-18.9 6.58v57.82l10.5.7q0 .14-.14 2.1Z"></path><rect width="72.66" height="70.56" x="-36.33" y="-35.28" fill="none" rx="0" ry="0" transform="translate(190.3 263.16)"></rect><path fill="#ffdc00" d="M303.975 227.804q0 .14.14 2.1l-6.16.7-21.14 32.2 22.26 32.48 7.56.42q0 .14-.14 2.1l-30.1.14q0-1.26.14-1.96l8.82-1.12q.84-.14 1.19-.77t-.07-1.19l-16.8-26.04-19.74 30.94-13.44.14-.14-2.1 10.64-.98 20.44-31.22-1.68-2.8-21.7-32.34h11.2l1.4 2.24-9.66 2.1q-1.54-1.96-2.38-2.1l-5.46-.7q-.14-.84-.14-2.1l29.4-.14q0 .14.14 2.1l-11.9.84 17.92 28.7 20.02-31.5Z"></path><rect width="70.28" height="70.14" x="-35.14" y="-35.07" fill="none" rx="0" ry="0" transform="translate(272 263.38)"></rect><path fill="#ffdc00" d="m317.135 297.944.14-1.96 7.28-.98q.98-.14 1.26-1.4v-95.76q0-1.54-.84-1.54l-8.54-.28.14-1.96q8.82-1.26 12.11-1.26 3.29 0 4.76 1.82 1.47 1.82 1.47 3.92v96.46l10.5.7q0 .14-.14 2.1Z"></path><rect width="28.98" height="105.14" x="-14.49" y="-52.57" fill="none" rx="0" ry="0" transform="translate(331.43 245.87)"></rect><path fill="#ffdc00" d="M366.415 265.604q0 30.24 23.52 30.24 6.16 0 13.16-1.33t8.96-2.45l.98 1.4q-3.22 2.1-10.57 3.5t-13.44 1.4q-6.09 0-10.92-1.26t-9.87-4.48q-5.04-3.22-7.98-10.08-2.94-6.86-2.94-16.8 0-18.48 9.52-28.28 9.94-10.22 23.1-10.22 13.16 0 20.09 7.28t6.93 20.44q0 2.8-.42 6.02h-49.98q-.14 1.54-.14 4.62m42.28-11.62q0-10.5-4.62-17.15-4.62-6.65-12.6-6.65-10.36 0-17.5 9.1-5.74 7.14-7.14 19.04h41.72q.14-1.54.14-4.34"></path><rect width="59.64" height="71.12" x="-29.82" y="-35.56" fill="none" rx="0" ry="0" transform="translate(387.63 263.3)"></rect><path fill="#ffdc00" d="m426.755 297.944.14-1.96 7.28-.98q1.26-.14 1.26-1.96v-60.62q-.28-1.12-.84-1.12l-8.54-.28.14-1.96q8.82-1.26 11.9-1.26 5.6 0 6.3 4.9h.14v2.94q11.48-7.84 21.98-8.26 10.22 0 15.54 4.06 2.38 1.82 4.27 5.67 1.89 3.85 1.89 9.17v48.72l10.5.7q0 .14-.14 2.1l-28 .14q0-1.26.14-1.96l7.28-.98q1.12-.14 1.12-1.96v-43.26q0-5.6-1.47-9.52t-3.29-5.74q-1.82-1.82-4.48-2.8-3.08-1.12-6.44-1.12-8.4.14-18.9 6.58v57.82l10.5.7q0 .14-.14 2.1Z"></path><rect width="72.66" height="70.56" x="-36.33" y="-35.28" fill="none" rx="0" ry="0" transform="translate(462.88 263.16)"></rect><path fill="#ffdc00" d="M531.615 296.124q.84 0 1.68-.14 7.28-.14 12.18-4.55 4.9-4.41 4.9-12.95 0-8.4-13.16-12.18-5.46-1.54-10.92-3.36-5.46-1.82-9.31-5.74-3.85-3.92-3.85-10.22 0-8.96 6.86-14.35 6.86-5.39 17.36-5.39 7.84 0 15.82 2.8l2.52.98v16.1l-2.66.98-.56-11.9q-8.12-6.44-13.58-6.44-7.7 0-12.18 4.55-4.48 4.55-4.48 12.11 0 4.34 3.85 7t9.31 4.2q5.46 1.54 10.92 3.43 5.46 1.89 9.31 6.16 3.85 4.27 3.85 11.13 0 9.24-6.93 14.63-6.93 5.39-19.67 5.39-12.74 0-21.14-6.02v-16.1l2.52-.98.7 11.9q1.96 3.64 7.07 6.3 5.11 2.66 9.59 2.66"></path><rect width="47.74" height="71.12" x="-23.87" y="-35.56" fill="none" rx="0" ry="0" transform="translate(536.1 263.3)"></rect></svg></svg>